<svg width="25" height="24" viewBox="0 0 25 24" fill="none" xmlns="http://www.w3.org/2000/svg">
<g id="CheckCircle  --icon">
<path id="Vector" d="M16.6136 9.21937C16.6834 9.28903 16.7387 9.37175 16.7764 9.46279C16.8142 9.55384 16.8336 9.65144 16.8336 9.75C16.8336 9.84856 16.8142 9.94616 16.7764 10.0372C16.7387 10.1283 16.6834 10.211 16.6136 10.2806L11.3636 15.5306C11.294 15.6004 11.2113 15.6557 11.1202 15.6934C11.0292 15.7312 10.9316 15.7506 10.833 15.7506C10.7345 15.7506 10.6369 15.7312 10.5458 15.6934C10.4548 15.6557 10.372 15.6004 10.3024 15.5306L8.05239 13.2806C7.91166 13.1399 7.83259 12.949 7.83259 12.75C7.83259 12.551 7.91166 12.3601 8.05239 12.2194C8.19312 12.0786 8.38399 11.9996 8.58301 11.9996C8.78203 11.9996 8.97291 12.0786 9.11364 12.2194L10.833 13.9397L15.5524 9.21937C15.622 9.14964 15.7048 9.09432 15.7958 9.05658C15.8869 9.01884 15.9845 8.99941 16.083 8.99941C16.1816 8.99941 16.2792 9.01884 16.3702 9.05658C16.4613 9.09432 16.544 9.14964 16.6136 9.21937ZM22.083 12C22.083 13.9284 21.5112 15.8134 20.4398 17.4168C19.3685 19.0202 17.8458 20.2699 16.0642 21.0078C14.2826 21.7458 12.3222 21.9389 10.4309 21.5627C8.53957 21.1865 6.80228 20.2579 5.43872 18.8943C4.07516 17.5307 3.14656 15.7934 2.77036 13.9021C2.39415 12.0108 2.58723 10.0504 3.32519 8.26884C4.06314 6.48726 5.31282 4.96452 6.9162 3.89317C8.51958 2.82183 10.4046 2.25 12.333 2.25C14.918 2.25273 17.3964 3.28084 19.2243 5.10872C21.0522 6.93661 22.0803 9.41498 22.083 12ZM20.583 12C20.583 10.3683 20.0992 8.77325 19.1926 7.41655C18.2861 6.05984 16.9976 5.00242 15.4902 4.37799C13.9827 3.75357 12.3239 3.59019 10.7235 3.90852C9.12317 4.22685 7.65316 5.01259 6.49938 6.16637C5.3456 7.32015 4.55986 8.79016 4.24153 10.3905C3.92321 11.9908 4.08658 13.6496 4.71101 15.1571C5.33543 16.6646 6.39285 17.9531 7.74956 18.8596C9.10626 19.7661 10.7013 20.25 12.333 20.25C14.5203 20.2475 16.6173 19.3775 18.1639 17.8309C19.7105 16.2843 20.5805 14.1873 20.583 12Z" fill="#4F709C"/>
</g>
</svg>
