<svg width="64" height="64" viewBox="0 0 64 64" fill="none" xmlns="http://www.w3.org/2000/svg">
<path d="M58.3241 2.41501H5.67906C3.87585 2.41501 2.41406 3.8768 2.41406 5.68001V58.3251C2.41406 60.1283 3.87585 61.5901 5.67906 61.5901H58.3241C60.1273 61.5901 61.5891 60.1283 61.5891 58.3251V5.68001C61.5891 3.8768 60.1273 2.41501 58.3241 2.41501Z" fill="#3D5A98"/>
<path d="M43.2406 61.585V38.67H50.9306L52.0806 29.74H43.2406V24.04C43.2406 21.455 43.9606 19.69 47.6656 19.69H52.3956V11.69C50.1051 11.4513 47.8034 11.3378 45.5006 11.35C38.6906 11.35 34.0006 15.5 34.0006 23.155V29.74H26.3105V38.67H34.0006V61.585H43.2406Z" fill="white"/>
</svg>
