<svg width="64" height="64" viewBox="0 0 64 64" fill="none" xmlns="http://www.w3.org/2000/svg">
<path d="M58.3241 2.41499H5.67906C3.87585 2.41499 2.41406 3.87678 2.41406 5.68V58.325C2.41406 60.1283 3.87585 61.59 5.67906 61.59H58.3241C60.1273 61.59 61.5891 60.1283 61.5891 58.325V5.68C61.5891 3.87678 60.1273 2.41499 58.3241 2.41499Z" fill="#3D5A98"/>
<path d="M43.2406 61.585V38.67H50.9306L52.0806 29.74H43.2406V24.04C43.2406 21.455 43.9606 19.69 47.6656 19.69H52.3956V11.69C50.1051 11.4513 47.8034 11.3378 45.5006 11.35C38.6906 11.35 34.0006 15.5 34.0006 23.155V29.74H26.3105V38.67H34.0006V61.585H43.2406Z" fill="white"/>
</svg>
