<svg width="34" height="34" viewBox="0 0 34 34" fill="none" xmlns="http://www.w3.org/2000/svg">
<circle cx="17" cy="17" r="17" fill="url(#paint0_linear_24_197)"/>
<path d="M28.1004 25.1668C28.1004 25.4732 28.0482 25.7766 27.9468 26.0597C27.8454 26.3428 27.6968 26.6 27.5095 26.8166C27.3221 27.0333 27.0997 27.2051 26.8549 27.3224C26.6101 27.4396 26.3478 27.5 26.0828 27.5H7.91798C7.38288 27.5 6.8697 27.2542 6.49133 26.8166C6.11296 26.3791 5.90039 25.7856 5.90039 25.1668V12.3306C5.90108 11.7124 6.11395 11.1197 6.49225 10.6828C6.87055 10.2459 7.38333 10.0005 7.91798 10.0005H10.7975C11.5125 10.0005 12.1732 9.61875 12.5303 8.99923L13.3936 7.50127C13.7507 6.88175 14.4114 6.5 15.1264 6.5H18.8678C19.5829 6.5 20.2435 6.88175 20.6006 7.50127L21.464 8.99923C21.8211 9.61875 22.4817 10.0005 23.1968 10.0005H26.0763C26.3418 9.99951 26.6048 10.0591 26.8504 10.1759C27.0959 10.2927 27.3191 10.4644 27.5071 10.6812C27.6952 10.8979 27.8444 11.1555 27.9462 11.4391C28.048 11.7226 28.1004 12.0266 28.1004 12.3337V25.1668Z" stroke="white" stroke-width="1.2" stroke-linecap="round" stroke-linejoin="round"/>
<path d="M21.5 17.9525C21.5 18.8425 21.2361 19.7126 20.7416 20.4526C20.2471 21.1926 19.5443 21.7694 18.7221 22.11C17.8998 22.4506 16.995 22.5397 16.1221 22.366C15.2492 22.1924 14.4474 21.7638 13.818 21.1345C13.1887 20.5052 12.7601 19.7033 12.5865 18.8304C12.4128 17.9575 12.5019 17.0527 12.8425 16.2304C13.1831 15.4082 13.7599 14.7054 14.4999 14.2109C15.24 13.7164 16.11 13.4525 17 13.4525C18.1935 13.4525 19.3381 13.9266 20.182 14.7705C21.0259 15.6144 21.5 16.759 21.5 17.9525V17.9525Z" stroke="white" stroke-width="1.2" stroke-linecap="round" stroke-linejoin="round"/>
<defs>
<linearGradient id="paint0_linear_24_197" x1="0" y1="17" x2="34" y2="17" gradientUnits="userSpaceOnUse">
<stop stop-color="#BDDFFF"/>
<stop offset="1" stop-color="#4F709C"/>
</linearGradient>
</defs>
</svg>
