<svg width="126" height="103" viewBox="0 0 126 103" fill="none" xmlns="http://www.w3.org/2000/svg">
<path d="M81.6607 59.5064V51.0532C81.6607 49.5328 81.5999 48.428 81.4783 47.7388C81.3566 47.0495 81.0627 46.7049 80.5965 46.7049C80.191 46.7049 79.9883 46.9786 79.9883 47.5259V59.5064C79.9883 59.7294 79.4004 59.9118 78.2247 60.0537C77.0489 60.1754 75.8428 60.2362 74.6062 60.2362C73.3696 60.2362 72.5892 60.1855 72.2648 60.0842C71.9405 59.9625 71.7783 59.7699 71.7783 59.5064V38.4341C71.7783 38.0084 72.3662 37.5827 73.5419 37.157C74.7177 36.7313 75.9543 36.5184 77.2516 36.5184C78.6098 36.5184 79.4714 36.7718 79.8363 37.2786C79.9579 37.4408 80.0187 37.6131 80.0187 37.7955V42.2654L79.6842 44.3635H79.8971C80.1809 43.9378 80.6269 43.5628 81.235 43.2385C82.3702 42.6303 83.6068 42.3262 84.9447 42.3262C86.8705 42.3262 88.1679 42.9445 88.8369 44.1811C89.5261 45.3974 89.8707 47.384 89.8707 50.1409V59.5064C89.8707 59.7294 89.2727 59.9118 88.0767 60.0537C86.9009 60.1754 85.6948 60.2362 84.4582 60.2362C83.2419 60.2362 82.4716 60.1855 82.1472 60.0842C81.8229 59.9625 81.6607 59.7699 81.6607 59.5064Z" fill="#4F709C"/>
<path d="M100.545 58.6854C100.504 59.2733 100.19 59.6787 99.6023 59.9017C99.0347 60.1247 98.0008 60.2362 96.5007 60.2362C95.0006 60.2362 93.7438 60.1044 92.7302 59.8409C91.7369 59.5571 91.2402 59.2023 91.2402 58.7766C91.2402 58.2901 92.1423 55.1886 93.9465 49.472C95.7507 43.7351 96.7845 40.4308 97.048 39.5592C97.1494 39.2956 97.9603 39.0828 99.4806 38.9206C101.021 38.7382 102.663 38.6469 104.407 38.6469C106.17 38.6469 107.143 38.951 107.326 39.5592C111.157 52.2897 113.073 58.7564 113.073 58.9591C113.073 59.1618 112.951 59.3645 112.708 59.5672C112.14 60.0132 111.015 60.2362 109.333 60.2362C105.745 60.2362 103.91 59.8105 103.829 58.9591L103.616 56.9826H100.697L100.545 58.6854ZM102.977 51.2052L102.521 45.7319H101.852L101.335 51.2052H102.977Z" fill="#4F709C"/>
<path d="M123.085 59.5064C123.085 59.7294 122.467 59.9118 121.23 60.0537C119.994 60.1754 118.747 60.2362 117.49 60.2362C116.254 60.2362 115.463 60.1855 115.119 60.0842C114.774 59.9625 114.602 59.7699 114.602 59.5064V40.593C114.602 40.147 115.19 39.7112 116.365 39.2855C117.541 38.8395 118.859 38.6165 120.318 38.6165C121.616 38.6165 122.467 38.8902 122.872 39.4375C123.014 39.6403 123.085 39.843 123.085 40.0457V59.5064Z" fill="#4F709C"/>
<path fill-rule="evenodd" clip-rule="evenodd" d="M61.9624 14.8546C64.8279 15.655 67.5872 16.7957 70.1813 18.2525H70.715L64.5088 38.6781C62.8265 36.9975 60.8236 35.6534 58.6059 34.7329C55.271 33.3487 51.6005 32.9846 48.0587 33.6869C44.5168 34.3892 41.2629 36.1262 38.7085 38.6781C36.1541 41.2301 34.4139 44.4823 33.7082 48.0234C33.0025 51.5646 33.3629 55.2354 34.7438 58.5717C36.1248 61.9079 38.4643 64.7596 41.4663 66.766C44.4682 68.7724 47.9978 69.8434 51.6086 69.8434C54.0047 69.8457 56.3778 69.3758 58.5922 68.4604C60.8044 67.546 62.8148 66.2051 64.5088 64.514V65.4779L70.715 85.1605L70.0568 84.7335C67.4647 86.199 64.705 87.3458 61.8378 88.1492L58.5289 102.986H44.4571L41.1482 88.1492C38.2726 87.3537 35.5061 86.2065 32.9114 84.7335L20.0849 92.8992L10.0869 82.919L18.2525 70.0746C16.775 67.4655 15.6334 64.68 14.8546 61.7845L0 58.4578V44.3326L14.8546 41.0414C15.6424 38.1603 16.7836 35.3877 18.2525 32.7869L10.2292 20.0315L20.2094 10.0869L32.9648 18.2525C35.5648 16.782 38.3375 15.6406 41.2193 14.8546L44.5104 0H58.6357L61.9624 14.8546Z" fill="#4F709C"/>
<path d="M115.486 72.1959C114.127 71.234 112.667 71.1159 111.351 71.7825C111.343 70.0358 110.769 68.7027 109.225 68.3314C109.199 68.3314 109.174 68.3314 109.149 68.3314C109.124 68.3314 109.098 68.3145 109.073 68.3145C99.5128 67.9939 89.5899 67.5214 80.0467 68.3483C76.8319 68.6267 77.1441 70.5843 77.3803 73.47C77.625 76.5077 78.2241 79.5537 79.5151 82.3213C80.3336 84.0764 81.4052 85.5783 82.6877 86.8271C79.8864 87.114 74.8912 88.1097 74.9587 90.8689C75.0093 92.9614 78.7473 93.6955 80.2492 93.9234C80.8483 94.0162 81.4558 94.0921 82.0633 94.1512C83.7594 98.0241 90.1552 97.3069 93.5557 97.3576C96.568 97.3997 99.9009 97.5263 102.863 96.9019C104.677 96.5222 105.537 95.265 106.601 93.8474C108.853 93.5943 112.44 93.1302 113.309 91.3414C114.617 88.6497 107.563 87.4853 104.542 87.1562C104.829 86.8862 105.107 86.5993 105.377 86.304C105.445 86.3209 105.504 86.3377 105.588 86.3377C110.263 86.1437 116.777 83.0892 117.334 77.8324C117.544 75.8664 117.173 73.411 115.477 72.2044L115.486 72.1959ZM110.566 76.5583C111.005 76.3811 111.697 76.1111 112.178 76.2798C112.811 76.5077 113.047 77.1658 112.937 77.7733C112.786 78.6002 112.043 79.4187 111.385 79.8912C110.668 80.4059 109.604 80.9797 108.651 81.1822C109.267 79.8575 109.942 78.229 110.465 76.5752C110.499 76.5752 110.533 76.5752 110.566 76.5583ZM100.036 95.9991C98.2387 96.1341 96.4414 96.1847 94.6357 96.1847C92.0031 96.1847 85.3879 96.8175 83.464 94.2777C86.4341 94.4887 89.4549 94.4465 92.3913 94.5056C96.5596 94.5815 100.736 94.5393 104.879 94.0415C103.58 95.3831 102.171 95.8472 100.028 95.9991H100.036ZM103.436 88.2363C105.402 88.3291 107.343 88.7341 109.216 89.3247C109.832 89.5188 111.317 89.8057 111.705 90.2951C112.566 91.3751 109.183 92.1345 108.465 92.2949C103.436 93.434 98.0784 93.4171 92.9482 93.3327C90.5265 93.2905 88.0964 93.223 85.6747 93.1302C83.3121 93.0374 79.4729 93.3243 77.4057 91.8814C74.6212 89.9491 78.7557 88.9028 80.283 88.5063C81.4474 88.2109 82.654 87.9662 83.8606 87.9241C83.8859 87.9241 83.9028 87.9156 83.9197 87.9072C86.3582 89.8057 89.3705 90.911 92.695 91.1979C96.7536 91.5439 100.373 90.4638 103.31 88.2025C103.352 88.2109 103.394 88.2363 103.445 88.2363H103.436ZM103.58 86.5149C98.4243 91.4089 89.3368 91.2654 84.0462 86.5909C81.709 84.5236 80.2745 81.6969 79.4561 78.7268C78.9835 77.0055 78.7051 75.242 78.5532 73.47C78.5026 72.8794 78.2832 71.6728 78.4351 71.099C78.9667 69.0908 80.9917 69.5042 82.4177 69.4705C91.2606 69.2511 100.112 69.2089 108.955 69.4958C111.41 70.1708 109.022 77.0139 108.524 78.4484C107.487 81.4269 105.892 84.3295 103.588 86.5234L103.58 86.5149ZM114.093 81.486C112.035 83.5533 109.25 84.7936 106.373 85.0889C106.719 84.6333 107.056 84.1523 107.368 83.6461C107.546 83.3507 107.782 82.9373 108.035 82.4395C108.052 82.4395 108.06 82.4395 108.069 82.4395C110.212 82.372 112.87 80.7181 113.798 78.7943C114.237 77.883 114.271 76.7692 113.638 75.9254C112.946 75.0057 111.849 74.9467 110.836 75.2167C111.014 74.5416 111.149 73.8666 111.233 73.2338C113.486 71.3268 115.857 73.6641 116.11 76.0014C116.355 78.2627 115.646 79.9081 114.085 81.4775L114.093 81.486Z" fill="#4F709C"/>
<path d="M81.0545 72.6261C80.9955 71.8751 79.8142 71.8667 79.8732 72.6261C80.1179 75.6468 81.0377 78.4735 82.6493 81.0386C83.0543 81.6799 84.0753 81.0892 83.6703 80.4395C82.1683 78.0432 81.2824 75.4359 81.0545 72.6176V72.6261Z" fill="#4F709C"/>
<path d="M84.344 82.4056C83.5846 82.4056 83.5846 83.5869 84.344 83.5869C85.1034 83.5869 85.1034 82.4056 84.344 82.4056Z" fill="#4F709C"/>
</svg>
